Coordinates
version=1
nRows=5
nColumns=40
inDegrees=yes

Units are S.I. units (second, meters, Newtons, ...)
Angles are in degrees.

endheader
time	pelvis_tilt	pelvis_list	pelvis_rotation	pelvis_tx	pelvis_ty	pelvis_tz	hip_flexion_r	hip_adduction_r	hip_rotation_r	knee_angle_r	knee_angle_r_beta	ankle_angle_r	subtalar_angle_r	mtp_angle_r	hip_flexion_l	hip_adduction_l	hip_rotation_l	knee_angle_l	knee_angle_l_beta	ankle_angle_l	subtalar_angle_l	mtp_angle_l	lumbar_extension	lumbar_bending	lumbar_rotation	arm_flex_r	arm_add_r	arm_rot_r	elbow_flex_r	pro_sup_r	wrist_flex_r	wrist_dev_r	arm_flex_l	arm_add_l	arm_rot_l	elbow_flex_l	pro_sup_l	wrist_flex_l	wrist_dev_l
      1.39000000	     -1.40653664	     -6.25079548	      4.35209332	      1.06494224	      0.92779065	      0.50455911	     12.81419246	      4.10208215	    -14.00415357	     19.75714081	     19.75714081	     10.07245225	     -5.45405284	     -4.53980719	     26.83686508	    -14.70967699	      0.46118839	     62.38498556	     62.38498556	      8.96438320	    -19.20755920	     16.37477871	    -11.33568108	      5.29010081	      1.55450305	     12.36601320	    -16.88958916	      0.51122108	     54.39710075	     44.48530819	      0.00000000	      0.00000000	     11.89186465	     -7.80995890	     -8.42800881	     38.03913775	     44.39486210	      0.00000000	      0.00000000
      1.40342857	     -1.71281299	     -5.95924218	      5.04588403	      1.06324562	      0.92816075	      0.50437280	     12.66267077	      3.79648484	    -14.25459783	     19.43602052	     19.43602052	     10.19512300	     -5.84011114	     -4.56590272	     28.12604876	    -14.13886230	      0.49057021	     60.03407382	     60.03407382	      9.37295362	    -19.15875553	     16.47607453	    -11.29770620	      4.94489441	      0.97348078	     14.29513372	    -16.77717022	      0.43335303	     56.04406399	     44.45337696	      0.00000000	      0.00000000	     10.87431253	     -7.76218656	     -8.35087390	     36.24250842	     44.40361556	      0.00000000	      0.00000000
      1.41685714	     -1.96297633	     -5.67714736	      5.73633537	      1.06153118	      0.92859563	      0.50410912	     12.40463010	      3.51119996	    -14.52564620	     19.01837636	     19.01837636	     10.29228400	     -6.14783123	     -4.58629834	     29.12897093	    -13.49352988	      0.50995256	     57.32636242	     57.32636242	      9.66832256	    -19.11996201	     16.33152551	    -11.35768022	      4.62068765	      0.52244960	     16.08348136	    -16.85333980	      0.49105895	     58.10784812	     44.40152274	      0.00000000	      0.00000000	     10.02507900	     -7.65641782	     -8.31973507	     34.28828797	     44.42407183	      0.00000000	      0.00000000
      1.43028571	     -2.26934393	     -5.51517723	      6.42422991	      1.05984582	      0.92881398	      0.50375993	     12.21676888	      3.33750590	    -14.87157413	     18.59917581	     18.59917581	     10.27747443	     -6.41959104	     -4.90654946	     30.03650295	    -12.91523205	      0.54672841	     54.31233326	     54.31233326	      9.57438574	    -19.04001113	     15.22179827	    -11.36108632	      4.46505969	      0.65886571	     17.00033752	    -17.80883871	      1.17917979	     61.83925608	     44.29732058	      0.00000000	      0.00000000	     10.25521330	     -7.17111644	     -8.52320641	     30.37971415	     44.57630514	      0.00000000	      0.00000000
      1.44371429	     -2.55874222	     -5.20417569	      7.02685045	      1.05816439	      0.92920874	      0.50331149	     12.01364980	      3.00566388	    -15.10248109	     18.23201298	     18.23201298	     10.38092790	     -6.69840723	     -4.86551136	     30.66017719	    -12.07980779	      0.56530692	     50.97568311	     50.97568311	      9.82668467	    -18.91130192	     15.26688884	    -11.38007890	      4.07090633	      0.64949480	     18.66990912	    -18.08418874	      0.88200407	     63.17643139	     44.27823435	      0.00000000	      0.00000000	      9.37195524	     -6.97770113	     -8.53909179	     29.45905299	     44.58489296	      0.00000000	      0.00000000
